# AST/ASF file generated using VICON BodyLanguage
# -----------------------------------------------
:version 1.10
:name VICON
:units
  mass 1.0
  length 0.45
  angle deg
:documentation
   .ast/.asf automatically generated from VICON data using
   VICON BodyBuilder and BodyLanguage model FoxedUp or BRILLIANT.MOD
:root
   order TX TY TZ RX RY RZ
   axis XYZ
   position 0 0 0  
   orientation 0 0 0 
:bonedata
  begin
     id 1 
     name lhipjoint
     direction 0.702568 -0.596508 0.388042 
     length 2.56661 
     axis 0 0 0  XYZ
  end
  begin
     id 2 
     name lfemur
     direction 0.34202 -0.939693 0  
     length 6.58374  
     axis 0 0 20  XYZ
    dof rx ry rz
    limits (-160.0 20.0)
           (-70.0 70.0)
           (-60.0 70.0)
  end
  begin
     id 3 
     name ltibia
     direction 0.34202 -0.939693 0   
     length 6.62538   
     axis 0 0 20   XYZ
    dof rx
    limits (-10.0 170.0)
  end
  begin
     id 4 
     name lfoot
     direction 0.10455 -0.287249 0.952133   
     length 2.26699   
     axis -90 7.62852e-016 20   XYZ
    dof rx rz
    limits (-45.0 90.0)
           (-70.0 20.0)
  end
  begin
     id 5 
     name ltoes
     direction 1.53572e-011 -4.22322e-011 1   
     length 1.12949   
     axis -90 7.62852e-016 20   XYZ
    dof rx
    limits (-90.0 20.0)
  end
  begin
     id 6 
     name rhipjoint
     direction -0.728055 -0.574632 0.373811   
     length 2.66432  
     axis 0 0 0  XYZ 
  end
  begin
     id 7 
     name rfemur
     direction -0.34202 -0.939693 0   
     length 6.66732   
     axis 0 0 -20   XYZ
    dof rx ry rz
    limits (-160.0 20.0)
           (-70.0 70.0)
           (-70.0 60.0)
  end
  begin
     id 8 
     name rtibia
     direction -0.34202 -0.939693 0   
     length 6.59288   
     axis 0 0 -20   XYZ
    dof rx
    limits (-10.0 170.0)
 end
 begin
     id 9 
     name rfoot
     direction -0.119193 -0.327479 0.93731   
     length 2.38061  
     axis -90 -7.62852e-016 -20   XYZ
    dof rx rz
    limits (-45.0 90.0)
           (-20.0 70.0)
  end
  begin
     id 10 
     name rtoes
     direction -1.53547e-011 -4.21827e-011 1   
     length 1.17899   
     axis -90 -7.62852e-016 -20   XYZ
    dof rx
    limits (-90.0 20.0)
  end
  begin
     id 11 
     name lowerback
     direction -0.000416114 0.999912 -0.0132284   
     length 2.12109   
     axis 0 0 0   XYZ
    dof rx ry rz
    limits (-20.0 45.0)
           (-30.0 30.0)
           (-30.0 30.0)
  end
  begin
     id 12 
     name upperback
     direction -0.00136371 0.99809 0.0617608   
     length 2.10067   
     axis 0 0 0   XYZ
    dof rx ry rz
    limits (-20.0 45.0)
           (-30.0 30.0)
           (-30.0 30.0)
  end
  begin
     id 13 
     name thorax
     direction -3.43026e-005 0.997776 0.0666515   
     length 2.10618   
     axis 0 0 0   XYZ
    dof rx ry rz
    limits (-20.0 45.0)
           (-30.0 30.0)
           (-30.0 30.0)
  end
  begin
     id 14 
     name lowerneck
     direction 0.0398646 0.998418 0.0396592   
     length 1.83817   
     axis 0 0 0   XYZ
    dof rx ry rz
    limits (-20.0 45.0)
           (-30.0 30.0)
           (-30.0 30.0)
  end
  begin
     id 15 
     name upperneck
     direction -0.0367268 0.961527 -0.272244   
     length 1.81975   
     axis 0 0 0   XYZ
    dof rx ry rz
    limits (-20.0 45.0)
           (-30.0 30.0)
           (-30.0 30.0)
  end
  begin
     id 16
     name head
     direction -0.0182665 0.99536 -0.0944669  
     length 1.86026  
     axis 0 0 0   XYZ
    dof rx ry rz
    limits (-20.0 45.0)
           (-30.0 30.0)
           (-30.0 30.0)
  end
  begin
     id 17 
     name lclavicle
     direction 0.924239 0.361045 0.124212  
     length 3.26878  
     axis 0 0 0   XYZ
    dof ry rz
    limits (-20.0 10.0)
           (0.0 20.0)
  end
  begin
     id 18 
     name lhumerus
     direction 1 -4.48968e-011 -2.56583e-027   
     length 4.58538   
     axis 180 -30 -90   XYZ
    dof rx ry rz
    limits (-60.0 90.0)
           (-90.0 90.0)
           (-90.0 90.0)
  end
  begin
     id 19
     name lradius
     direction 1 -4.4898e-011 -5.50375e-027   
     length 2.68935   
     axis 180 -30 -90   XYZ
    dof rx
    limits (-10.0 170.0)
  end
  begin
     id 20
     name lwrist
     direction 1 -4.48939e-011 -1.48955e-026   
     length 1.34468   
     axis 9.0955e-015 90 90   XYZ
    dof ry
    limits (-180.0 0.0)
 end
  begin
     id 21 
     name lhand
     direction 1 -4.48936e-011 -2.97907e-026   
     length 0.585058   
     axis 1.90115e-014 90 90   XYZ
    dof rx rz
    limits (-90.0 90.0)
           (-45.0 45.0)
  end
  begin
     id 22 
     name lfingers
     direction 1 -4.49082e-011 -5.96235e-026   
     length 0.471689   
     axis 3.80223e-014 90 90   XYZ
    dof rx
    limits (0.0 90.0)
  end
  begin
     id 23
     name lthumb
     direction 0.707107 -6.3489e-011 0.707107   
     length 0.677253   
     axis -90 45 -3.84942e-014   XYZ
    dof rx rz
    limits (-45.0 45.0)
           (-45.0 45.0)
  end
  begin
     id 24 
     name rclavicle
     direction -0.923098 0.371783 0.0983239   
     length 3.19656  
     axis 0 0 0   XYZ 
    dof ry rz
    limits (-10.0 20.0)
           (-20.0 0.0)
  end
  begin
     id 25 
     name rhumerus
     direction -1 -4.48976e-011 -2.5492e-027  
     length 4.4745   
     axis 180 30 90   XYZ
    dof rx ry rz
    limits (-90.0 60.0)
           (-90.0 90.0)
           (-90.0 90.0)
  end
  begin
     id 26 
     name rradius
     direction -1 -4.48941e-011 -4.36555e-027   
     length 2.93896   
     axis 180 30 90   XYZ
    dof rx
    limits (-10.0 170.0)
  end
  begin
     id 27 
     name rwrist
     direction -1 -4.49044e-011 -1.49032e-026   
     length 1.46948   
     axis 9.0955e-015 -90 -90   XYZ
    dof ry
    limits (-180.0 0.0)
  end
  begin
     id 28
     name rhand
     direction -1 -4.48826e-011 -2.97749e-026   
     length 0.405092   
     axis 1.90115e-014 -90 -90   XYZ
    dof rx rz
    limits (-90.0 90.0)
           (-45.0 45.0)
  end
  begin
     id 29
     name rfingers
     direction -1 -4.49209e-011 -5.96602e-026   
     length 0.326596   
     axis 3.80223e-014 -90 -90   XYZ
    dof rx
    limits (0.0 90.0)
  end
  begin
     id 30
     name rthumb
     direction -0.707107 -6.34776e-011 0.707107   
     length 0.468928   
     axis -90 -45 3.84942e-014   XYZ
    dof rx rz
    limits (-45.0 45.0)
           (-45.0 45.0)
  end
:hierarchy
  begin
    root lhipjoint rhipjoint lowerback
    lhipjoint lfemur
    lfemur ltibia
    ltibia lfoot
    lfoot ltoes
    rhipjoint rfemur
    rfemur rtibia
    rtibia rfoot
    rfoot rtoes
    lowerback upperback
    upperback thorax
    thorax lowerneck lclavicle rclavicle
    lowerneck upperneck
    upperneck head
    lclavicle lhumerus
    lhumerus lradius
    lradius lwrist
    lwrist lhand lthumb
    lhand lfingers
    rclavicle rhumerus
    rhumerus rradius
    rradius rwrist
    rwrist rhand rthumb
    rhand rfingers
  end

#!OML:ASF H:\Punching\Project 1\Capture day 1\Session 1\female.ASF
:FULLY-SPECIFIED
:DEGREES
1
root 1.39265 15.7163 5.95806 9.95712 -2.73667 -4.11901
lowerback -5.96276 -0.843953 4.39538
upperback -7.50818 -1.20846 1.4925
thorax -4.51649 -0.785899 -0.931147
lowerneck -7.58169 4.91892 11.3418
upperneck 36.1036 7.10084 -6.42327
head 14.3089 3.83113 -3.61489
rclavicle -3.00289e-014 1.33186e-014
rhumerus -38.946 -10.8057 -74.8661
rradius 30.4864
rwrist 6.29391
rhand -14.7741 -19.6244
rfingers 7.12502
rthumb 11.3826 -49.2954
lclavicle -3.00289e-014 1.33186e-014
lhumerus -43.9878 10.0528 77.0594
lradius 36.022
lwrist -11.8026
lhand -8.44582 15.2003
lfingers 7.12502
lthumb 17.4798 44.4344
rfemur -11.9627 10.8165 20.6504
rtibia 21.3013
rfoot -14.4319 -28.2723
rtoes 0.168612
lfemur -15.1794 -14.7993 -9.94015
ltibia 25.8628
lfoot -18.7124 20.8608
ltoes -1.23479
2
root 1.39357 15.7158 5.96122 9.94533 -2.76626 -4.12731
lowerback -5.9944 -0.809909 4.444
upperback -7.48253 -1.16748 1.47798
thorax -4.47131 -0.767113 -0.973712
lowerneck -7.50283 4.89305 11.3105
upperneck 35.9866 7.06822 -6.41291
head 14.2297 3.81408 -3.60806
rclavicle 3.37934e-015 6.55989e-015
rhumerus -38.935 -14.0578 -72.3995
rradius 28.0877
rwrist 11.5432
rhand -11.1227 -4.37346
rfingers 7.12502
rthumb 14.9022 -33.8174
lclavicle 3.37934e-015 6.55989e-015
lhumerus -43.9322 10.1089 77.1433
lradius 35.8753
lwrist -11.9805
lhand -8.58787 14.9782
lfingers 7.12502
lthumb 17.3431 44.2244
rfemur -11.9439 10.7576 20.6533
rtibia 21.3031
rfoot -14.4477 -28.1914
rtoes 0.208911
lfemur -15.1373 -14.8334 -9.94987
ltibia 25.8618
lfoot -18.7478 20.9009
ltoes -1.14907
3
root 1.39265 15.7164 5.95946 9.94883 -2.67068 -4.08734
lowerback -5.95129 -0.831897 4.41031
upperback -7.51206 -1.1921 1.47996
thorax -4.52702 -0.778954 -0.951906
lowerneck -7.58973 4.90274 11.2431
upperneck 36.0861 7.0563 -6.30805
head 14.2865 3.81259 -3.5552
rclavicle -2.04997e-015 1.44119e-014
rhumerus -38.9665 -13.7499 -72.613
rradius 28.3358
rwrist 11.242
rhand -11.0826 -4.4578
rfingers 7.12502
rthumb 14.9409 -33.8989
lclavicle -2.04997e-015 1.44119e-014
lhumerus -43.9847 10.1908 77.2402
lradius 35.8928
lwrist -11.8955
lhand -8.44404 15.1664
lfingers 7.12502
lthumb 17.4815 44.4004
rfemur -11.9423 10.7804 20.6261
rtibia 21.318
rfoot -14.5005 -28.3012
rtoes 0.264139
lfemur -15.1822 -14.7509 -9.97251
ltibia 25.8476
lfoot -18.6786 20.757
ltoes -1.28473
4
root 1.3923 15.7164 5.96013 9.95007 -2.66464 -4.07204
lowerback -5.95555 -0.821609 4.40882
upperback -7.49748 -1.17916 1.47527
thorax -4.50851 -0.77201 -0.956097
lowerneck -7.62377 4.89776 11.2819
upperneck 36.0572 7.05805 -6.37194
head 14.2855 3.80988 -3.58708
rclavicle -6.12505e-015 1.00386e-014
rhumerus -38.8523 -13.4504 -72.9698
rradius 28.5733
rwrist 10.7694
rhand -11.3728 -5.60833
rfingers 7.12502
rthumb 14.6614 -35.07
lclavicle -6.12505e-015 1.00386e-014
lhumerus -44.0068 10.3 77.3282
lradius 35.8741
lwrist -11.9368
lhand -8.42055 15.122
lfingers 7.12502
lthumb 17.5042 44.3539
rfemur -11.9506 10.784 20.6108
rtibia 21.3277
rfoot -14.4698 -28.3222
rtoes 0.182772
lfemur -15.182 -14.7633 -9.98708
ltibia 25.8388
lfoot -18.6556 20.7679
ltoes -1.3346
5
root 1.39196 15.7164 5.96056 9.95032 -2.63905 -4.05988
lowerback -5.9507 -0.814334 4.41507
upperback -7.49665 -1.16941 1.47048
thorax -4.51017 -0.767555 -0.964313
lowerneck -7.64711 4.89113 11.2806
upperneck 36.0514 7.04788 -6.37741
head 14.2869 3.8043 -3.59008
rclavicle 1.0635e-014 -1.00386e-014
rhumerus -38.8192 -13.5924 -72.9267
rradius 28.4879
rwrist 11.0052
rhand -11.1756 -4.50696
rfingers 7.12502
rthumb 14.8513 -33.9547
lclavicle 1.0635e-014 -1.00386e-014
lhumerus -44.0332 10.3878 77.4173
lradius 35.8399
lwrist -11.9619
lhand -8.37525 15.1124
lfingers 7.12502
lthumb 17.5477 44.3404
rfemur -11.9511 10.7883 20.6017
rtibia 21.3401
rfoot -14.4868 -28.3514
rtoes 0.196421
lfemur -15.186 -14.7527 -9.99595
ltibia 25.8272
lfoot -18.6337 20.7389
ltoes -1.36988
6
root 1.39159 15.7164 5.96104 9.9512 -2.61264 -4.04855
lowerback -5.94678 -0.806988 4.42346
upperback -7.49773 -1.15963 1.46501
thorax -4.5134 -0.763264 -0.974401
lowerneck -7.6665 4.88407 11.2851
upperneck 36.0458 7.03853 -6.38921
head 14.2881 3.79918 -3.5967
rclavicle 2.23633e-016 1.67973e-014
rhumerus -38.7865 -13.469 -73.0917
rradius 28.5766
rwrist 10.8117
rhand -11.28 -4.43339
rfingers 7.12502
rthumb 14.7507 -33.8885
lclavicle 2.23633e-016 1.67973e-014
lhumerus -44.0712 10.473 77.5058
lradius 35.8076
lwrist -11.9795
lhand -8.31451 15.1068
lfingers 7.12502
lthumb 17.6062 44.3297
rfemur -11.9475 10.797 20.5933
rtibia 21.3459
rfoot -14.5074 -28.3817
rtoes 0.225611
lfemur -15.1935 -14.7458 -10.0034
ltibia 25.8217
lfoot -18.6193 20.7119
ltoes -1.38899
7
root 1.39123 15.7164 5.96182 9.95201 -2.59141 -4.04179
lowerback -5.94267 -0.798416 4.43707
upperback -7.50197 -1.14822 1.46024
thorax -4.52018 -0.758509 -0.986584
lowerneck -7.66606 4.87715 11.2945
upperneck 36.0322 7.03246 -6.40729
head 14.282 3.79567 -3.60643
rclavicle -2.40778e-014 4.17448e-015
rhumerus -38.7664 -13.3552 -73.2466
rradius 28.6506
rwrist 10.6327
rhand -11.3928 -4.34142
rfingers 7.12502
rthumb 14.6421 -33.8045
lclavicle -2.40778e-014 4.17448e-015
lhumerus -44.1233 10.5574 77.5898
lradius 35.7702
lwrist -12.0052
lhand -8.25027 15.0862
lfingers 7.12502
lthumb 17.668 44.3034
rfemur -11.9413 10.8066 20.5893
rtibia 21.3498
rfoot -14.5317 -28.4065
rtoes 0.265051
lfemur -15.198 -14.7458 -10.0069
ltibia 25.8181
lfoot -18.6126 20.694
ltoes -1.39156
